<mxfile host="Electron" agent="Mozilla/5.0 (Windows NT 10.0; Win64; x64) AppleWebKit/537.36 (KHTML, like Gecko) draw.io/26.2.2 Chrome/134.0.6998.178 Electron/35.1.2 Safari/537.36" version="26.2.2">
  <diagram name="Cross-Domain Mapping-Based Prompt Template Generation" id="-j1mXVkktjzw7wY8bZ39">
    <mxGraphModel dx="1030" dy="611" grid="1" gridSize="10" guides="1" tooltips="1" connect="1" arrows="1" fold="1" page="1" pageScale="1" pageWidth="827" pageHeight="1169" math="0" shadow="0">
      <root>
        <mxCell id="0" />
        <mxCell id="1" parent="0" />
        <mxCell id="Chrdp9NTQtH4WzYhH0S5-2" value="&lt;b&gt;Source Domain Data&lt;/b&gt;" style="rounded=1;whiteSpace=wrap;html=1;fillColor=#dae3f3;strokeColor=#6c8ebf;" vertex="1" parent="1">
          <mxGeometry x="120" y="125" width="140" height="50" as="geometry" />
        </mxCell>
        <mxCell id="Chrdp9NTQtH4WzYhH0S5-3" value="Prompt Generator (G)" style="swimlane;fontStyle=1;childLayout=stackLayout;horizontal=1;startSize=30;horizontalStack=0;resizeParent=1;resizeParentMax=0;resizeLast=0;collapsible=1;marginBottom=0;whiteSpace=wrap;html=1;fillColor=#e2f0d9;strokeColor=#82b366;" vertex="1" parent="1">
          <mxGeometry x="320" y="100" width="240" height="100" as="geometry" />
        </mxCell>
        <mxCell id="Chrdp9NTQtH4WzYhH0S5-4" value="Domain-Sensitive Expression Mapping" style="text;strokeColor=none;fillColor=none;align=left;verticalAlign=middle;spacingLeft=4;spacingRight=4;overflow=hidden;points=[[0,0.5],[1,0.5]];portConstraint=eastwest;rotatable=0;whiteSpace=wrap;html=1;" vertex="1" parent="Chrdp9NTQtH4WzYhH0S5-3">
          <mxGeometry y="30" width="240" height="30" as="geometry" />
        </mxCell>
        <mxCell id="Chrdp9NTQtH4WzYhH0S5-5" value="Task Alignment Features" style="text;strokeColor=none;fillColor=none;align=left;verticalAlign=middle;spacingLeft=4;spacingRight=4;overflow=hidden;points=[[0,0.5],[1,0.5]];portConstraint=eastwest;rotatable=0;whiteSpace=wrap;html=1;" vertex="1" parent="Chrdp9NTQtH4WzYhH0S5-3">
          <mxGeometry y="60" width="240" height="40" as="geometry" />
        </mxCell>
        <mxCell id="Chrdp9NTQtH4WzYhH0S5-6" value="" style="edgeStyle=orthogonalEdgeStyle;rounded=0;orthogonalLoop=1;jettySize=auto;html=1;entryX=0;entryY=0.5;entryDx=0;entryDy=0;" edge="1" parent="1" source="Chrdp9NTQtH4WzYhH0S5-2" target="Chrdp9NTQtH4WzYhH0S5-3">
          <mxGeometry relative="1" as="geometry" />
        </mxCell>
        <mxCell id="Chrdp9NTQtH4WzYhH0S5-7" value="&lt;b&gt;Hierarchical Prompt Template Structure&lt;/b&gt;" style="rounded=1;whiteSpace=wrap;html=1;fillColor=#fff2cc;strokeColor=#d6b656;" vertex="1" parent="1">
          <mxGeometry x="320" y="250" width="240" height="40" as="geometry" />
        </mxCell>
        <mxCell id="Chrdp9NTQtH4WzYhH0S5-8" value="" style="edgeStyle=orthogonalEdgeStyle;rounded=0;orthogonalLoop=1;jettySize=auto;html=1;exitX=0.5;exitY=1;exitDx=0;exitDy=0;entryX=0.5;entryY=0;entryDx=0;entryDy=0;" edge="1" parent="1" source="Chrdp9NTQtH4WzYhH0S5-3" target="Chrdp9NTQtH4WzYhH0S5-7">
          <mxGeometry relative="1" as="geometry" />
        </mxCell>
        <mxCell id="Chrdp9NTQtH4WzYhH0S5-9" value="&lt;b&gt;1. Domain Adaptation Layer&lt;/b&gt;&lt;br&gt;Domain-specific features, terminology, interaction patterns" style="rounded=1;whiteSpace=wrap;html=1;fillColor=#e1d5e7;strokeColor=#9673a6;" vertex="1" parent="1">
          <mxGeometry x="100" y="320" width="200" height="60" as="geometry" />
        </mxCell>
        <mxCell id="Chrdp9NTQtH4WzYhH0S5-10" value="&lt;b&gt;2. Example Guiding Layer&lt;/b&gt;&lt;br&gt;Few-shot high-quality examples as domain anchors" style="rounded=1;whiteSpace=wrap;html=1;fillColor=#e1d5e7;strokeColor=#9673a6;" vertex="1" parent="1">
          <mxGeometry x="340" y="320" width="200" height="60" as="geometry" />
        </mxCell>
        <mxCell id="Chrdp9NTQtH4WzYhH0S5-11" value="&lt;b&gt;3. Task Mapping Layer&lt;/b&gt;&lt;br&gt;Precise mapping path from input text to target intent categories" style="rounded=1;whiteSpace=wrap;html=1;fillColor=#e1d5e7;strokeColor=#9673a6;" vertex="1" parent="1">
          <mxGeometry x="580" y="320" width="200" height="60" as="geometry" />
        </mxCell>
        <mxCell id="Chrdp9NTQtH4WzYhH0S5-12" value="" style="edgeStyle=orthogonalEdgeStyle;rounded=0;orthogonalLoop=1;jettySize=auto;html=1;exitX=0.5;exitY=1;exitDx=0;exitDy=0;entryX=0.5;entryY=0;entryDx=0;entryDy=0;" edge="1" parent="1" source="Chrdp9NTQtH4WzYhH0S5-7" target="Chrdp9NTQtH4WzYhH0S5-10">
          <mxGeometry relative="1" as="geometry" />
        </mxCell>
        <mxCell id="Chrdp9NTQtH4WzYhH0S5-13" value="" style="edgeStyle=orthogonalEdgeStyle;rounded=0;orthogonalLoop=1;jettySize=auto;html=1;exitX=0.25;exitY=1;exitDx=0;exitDy=0;entryX=0.5;entryY=0;entryDx=0;entryDy=0;" edge="1" parent="1" source="Chrdp9NTQtH4WzYhH0S5-7" target="Chrdp9NTQtH4WzYhH0S5-9">
          <mxGeometry relative="1" as="geometry">
            <Array as="points">
              <mxPoint x="380" y="300" />
              <mxPoint x="200" y="300" />
            </Array>
          </mxGeometry>
        </mxCell>
        <mxCell id="Chrdp9NTQtH4WzYhH0S5-14" value="" style="edgeStyle=orthogonalEdgeStyle;rounded=0;orthogonalLoop=1;jettySize=auto;html=1;exitX=0.75;exitY=1;exitDx=0;exitDy=0;entryX=0.5;entryY=0;entryDx=0;entryDy=0;" edge="1" parent="1" source="Chrdp9NTQtH4WzYhH0S5-7" target="Chrdp9NTQtH4WzYhH0S5-11">
          <mxGeometry relative="1" as="geometry">
            <Array as="points">
              <mxPoint x="500" y="300" />
              <mxPoint x="680" y="300" />
            </Array>
          </mxGeometry>
        </mxCell>
        <mxCell id="Chrdp9NTQtH4WzYhH0S5-15" value="&lt;b&gt;Large Language Model (LLM)&lt;/b&gt;" style="rounded=1;whiteSpace=wrap;html=1;fillColor=#f8cecc;strokeColor=#b85450;" vertex="1" parent="1">
          <mxGeometry x="320" y="430" width="240" height="60" as="geometry" />
        </mxCell>
        <mxCell id="Chrdp9NTQtH4WzYhH0S5-16" value="" style="edgeStyle=orthogonalEdgeStyle;rounded=0;orthogonalLoop=1;jettySize=auto;html=1;exitX=0.5;exitY=1;exitDx=0;exitDy=0;entryX=0.15;entryY=0;entryDx=0;entryDy=0;entryPerimeter=0;" edge="1" parent="1" source="Chrdp9NTQtH4WzYhH0S5-9" target="Chrdp9NTQtH4WzYhH0S5-15">
          <mxGeometry relative="1" as="geometry">
            <Array as="points">
              <mxPoint x="200" y="400" />
              <mxPoint x="356" y="400" />
            </Array>
          </mxGeometry>
        </mxCell>
        <mxCell id="Chrdp9NTQtH4WzYhH0S5-17" value="" style="edgeStyle=orthogonalEdgeStyle;rounded=0;orthogonalLoop=1;jettySize=auto;html=1;exitX=0.5;exitY=1;exitDx=0;exitDy=0;entryX=0.5;entryY=0;entryDx=0;entryDy=0;" edge="1" parent="1" source="Chrdp9NTQtH4WzYhH0S5-10" target="Chrdp9NTQtH4WzYhH0S5-15">
          <mxGeometry relative="1" as="geometry" />
        </mxCell>
        <mxCell id="Chrdp9NTQtH4WzYhH0S5-18" value="" style="edgeStyle=orthogonalEdgeStyle;rounded=0;orthogonalLoop=1;jettySize=auto;html=1;exitX=0.5;exitY=1;exitDx=0;exitDy=0;entryX=0.85;entryY=0;entryDx=0;entryDy=0;entryPerimeter=0;" edge="1" parent="1" source="Chrdp9NTQtH4WzYhH0S5-11" target="Chrdp9NTQtH4WzYhH0S5-15">
          <mxGeometry relative="1" as="geometry">
            <Array as="points">
              <mxPoint x="680" y="400" />
              <mxPoint x="524" y="400" />
            </Array>
          </mxGeometry>
        </mxCell>
        <mxCell id="Chrdp9NTQtH4WzYhH0S5-19" value="&lt;b&gt;Target Domain Input&lt;/b&gt;" style="rounded=1;whiteSpace=wrap;html=1;fillColor=#d5e8d4;strokeColor=#82b366;" vertex="1" parent="1">
          <mxGeometry x="140" y="430" width="120" height="60" as="geometry" />
        </mxCell>
        <mxCell id="Chrdp9NTQtH4WzYhH0S5-20" value="" style="edgeStyle=orthogonalEdgeStyle;rounded=0;orthogonalLoop=1;jettySize=auto;html=1;exitX=1;exitY=0.5;exitDx=0;exitDy=0;entryX=0;entryY=0.5;entryDx=0;entryDy=0;" edge="1" parent="1" source="Chrdp9NTQtH4WzYhH0S5-19" target="Chrdp9NTQtH4WzYhH0S5-15">
          <mxGeometry relative="1" as="geometry" />
        </mxCell>
        <mxCell id="Chrdp9NTQtH4WzYhH0S5-21" value="&lt;b&gt;Target Domain Predictions&lt;/b&gt;" style="rounded=1;whiteSpace=wrap;html=1;fillColor=#bac8d3;strokeColor=#23445d;" vertex="1" parent="1">
          <mxGeometry x="320" y="540" width="240" height="60" as="geometry" />
        </mxCell>
        <mxCell id="Chrdp9NTQtH4WzYhH0S5-22" value="" style="edgeStyle=orthogonalEdgeStyle;rounded=0;orthogonalLoop=1;jettySize=auto;html=1;exitX=0.5;exitY=1;exitDx=0;exitDy=0;entryX=0.5;entryY=0;entryDx=0;entryDy=0;" edge="1" parent="1" source="Chrdp9NTQtH4WzYhH0S5-15" target="Chrdp9NTQtH4WzYhH0S5-21">
          <mxGeometry relative="1" as="geometry" />
        </mxCell>
        <mxCell id="Chrdp9NTQtH4WzYhH0S5-23" value="&lt;b&gt;Iterative Prompt Optimization&lt;/b&gt;" style="rounded=1;whiteSpace=wrap;html=1;fillColor=#d0cee2;strokeColor=#56517e;" vertex="1" parent="1">
          <mxGeometry x="620" y="540" width="240" height="60" as="geometry" />
        </mxCell>
        <mxCell id="Chrdp9NTQtH4WzYhH0S5-24" value="" style="edgeStyle=orthogonalEdgeStyle;rounded=0;orthogonalLoop=1;jettySize=auto;html=1;exitX=1;exitY=0.5;exitDx=0;exitDy=0;entryX=0;entryY=0.5;entryDx=0;entryDy=0;" edge="1" parent="1" source="Chrdp9NTQtH4WzYhH0S5-21" target="Chrdp9NTQtH4WzYhH0S5-23">
          <mxGeometry relative="1" as="geometry" />
        </mxCell>
        <mxCell id="Chrdp9NTQtH4WzYhH0S5-25" value="" style="edgeStyle=orthogonalEdgeStyle;rounded=0;orthogonalLoop=1;jettySize=auto;html=1;exitX=0.5;exitY=0;exitDx=0;exitDy=0;entryX=1;entryY=0.5;entryDx=0;entryDy=0;curved=1;dashed=1;" edge="1" parent="1" source="Chrdp9NTQtH4WzYhH0S5-23" target="Chrdp9NTQtH4WzYhH0S5-7">
          <mxGeometry relative="1" as="geometry">
            <Array as="points">
              <mxPoint x="870" y="540" />
              <mxPoint x="870" y="270" />
            </Array>
          </mxGeometry>
        </mxCell>
        <mxCell id="Chrdp9NTQtH4WzYhH0S5-27" value="&lt;b&gt;High-Quality Target Domain Adaptation&lt;/b&gt;&lt;br&gt;Enhanced intent understanding accuracy&lt;br&gt;Improved representation in target domain" style="rounded=1;whiteSpace=wrap;html=1;fillColor=#f5f5f5;strokeColor=#666666;fontColor=#333333;" vertex="1" parent="1">
          <mxGeometry x="320" y="640" width="240" height="80" as="geometry" />
        </mxCell>
        <mxCell id="Chrdp9NTQtH4WzYhH0S5-28" value="" style="edgeStyle=orthogonalEdgeStyle;rounded=0;orthogonalLoop=1;jettySize=auto;html=1;exitX=0.5;exitY=1;exitDx=0;exitDy=0;entryX=0.5;entryY=0;entryDx=0;entryDy=0;" edge="1" parent="1" source="Chrdp9NTQtH4WzYhH0S5-21" target="Chrdp9NTQtH4WzYhH0S5-27">
          <mxGeometry relative="1" as="geometry" />
        </mxCell>
      </root>
    </mxGraphModel>
  </diagram>
</mxfile>
